<?xml version="1.0" encoding="UTF-8" standalone="no"?>
<!-- Created with Inkscape (http://www.inkscape.org/) -->

<svg
   xmlns:dc="http://purl.org/dc/elements/1.1/"
   xmlns:cc="http://creativecommons.org/ns#"
   xmlns:rdf="http://www.w3.org/1999/02/22-rdf-syntax-ns#"
   xmlns:svg="http://www.w3.org/2000/svg"
   xmlns="http://www.w3.org/2000/svg"
   xmlns:sodipodi="http://sodipodi.sourceforge.net/DTD/sodipodi-0.dtd"
   xmlns:inkscape="http://www.inkscape.org/namespaces/inkscape"
   width="92.754097mm"
   height="63.985069mm"
   viewBox="0 0 328.65625 226.71875"
   id="svg4182"
   version="1.1"
   inkscape:version="0.91 r13725"
   sodipodi:docname="Broodje hamburger.svg">
  <defs
     id="defs4184" />
  <sodipodi:namedview
     id="base"
     pagecolor="#ffffff"
     bordercolor="#666666"
     borderopacity="1.0"
     inkscape:pageopacity="0.0"
     inkscape:pageshadow="2"
     inkscape:zoom="0.55969323"
     inkscape:cx="130.66106"
     inkscape:cy="24.969098"
     inkscape:document-units="px"
     inkscape:current-layer="layer1"
     showgrid="false"
     inkscape:window-width="1344"
     inkscape:window-height="791"
     inkscape:window-x="0"
     inkscape:window-y="0"
     inkscape:window-maximized="1"
     fit-margin-top="0"
     fit-margin-left="0"
     fit-margin-right="0"
     fit-margin-bottom="0" />
  <metadata
     id="metadata4187">
    <rdf:RDF>
      <cc:Work
         rdf:about="">
        <dc:format>image/svg+xml</dc:format>
        <dc:type
           rdf:resource="http://purl.org/dc/dcmitype/StillImage" />
        <dc:title></dc:title>
      </cc:Work>
    </rdf:RDF>
  </metadata>
  <g
     inkscape:label="Laag 1"
     inkscape:groupmode="layer"
     id="layer1"
     transform="translate(-241.38618,-324.43145)">
    <g
       id="g4145">
      <path
         sodipodi:nodetypes="ccccccccccccccccccccccccc"
         id="path3929"
         d="m 389.57368,324.43145 -67.9375,19.125 -55.57512,47.10276 -4.45613,35.13764 16.17492,10.28175 -10.45617,11.54035 -11.5,3.90625 -14.4375,25.6875 20.90625,13.53125 -3.15625,22.09375 0.78125,-0.3125 8.40625,17.75 28.6875,10.96875 72.3125,9.90625 96.90625,-2.625 54.4375,-23.96875 20.875,-24.40625 8.78125,-37.125 2.78125,-0.78125 16.9375,-40.90625 -25.84375,-7.09375 -9.74219,-7.92247 13.61719,-20.95253 c -20.67342,-20.6142 -38.85092,-37.7863 -59.28125,-57.65625 z"
         style="fill:#000000;fill-opacity:1;stroke:none"
         inkscape:connector-curvature="0" />
      <path
         sodipodi:nodetypes="ccccccccccccc"
         d="m 275.47743,390.82267 55.9375,-42.41499 62.0475,-17.47375 90.59375,3.0075 54.13,52.62749 -15.13375,25.0475 -33.58416,2.20348 -90.76199,11.05856 -51.6458,-4.10001 -28.37027,10.57417 -30.999,0.375 -13.36564,-8.98932 z"
         id="path39"
         inkscape:connector-curvature="0"
         style="fill:#d19e42" />
      <path
         id="path41"
         d="m 514.65941,425.14513 c 0,0 -89.94035,39.04969 -99.7766,39.66469 -9.835,0.615 -125.42019,-12.26731 -125.42019,-12.26731 l -11.00337,-5.16469 -17.57307,10.42863 -11.3125,10.875 19.6875,17.1875 23.75,-0.96875 38.47416,-18.2494 -17.88041,14.65565 26.90625,-10.96875 -18.53125,12.65625 13.41017,9.72954 31.70196,0.21302 76.72381,-10.07176 -48.8516,10.25904 54.31194,-4.66469 97.10997,-33.7464 14.09375,-26.71875 -130.3125,39.9375 121.65625,-44.75 z"
         style="fill:#5e3f30"
         inkscape:connector-curvature="0"
         sodipodi:nodetypes="cscccccccccccccccccccc" />
      <path
         sodipodi:nodetypes="cccccccccccccccc"
         d="m 338.17928,514.93154 -38.77022,-7.17824 -22.92853,-12.31625 -7.81284,17.18495 11.69688,12.57559 24.38031,8.60022 71.4738,8.0011 83.82625,1.50375 46.98875,-21.42625 26.31375,-21.8025 11.44007,-25.44977 -20.31454,6.30093 c -7.69804,2.54278 -14.25455,7.35221 -21.09443,11.57998 l -36.07357,12.90105 -37.55797,4.57056 z"
         id="path45"
         inkscape:connector-curvature="0"
         style="fill:#d19e42" />
      <path
         d="m 327.54118,414.26017 37.11875,4.45375 -19.35875,14.9625 58.63625,-14.31875 39.99375,8.86875 38.09,-18.19875 24.5475,-22.855 -50.8125,28.095 -38.52375,-10.91 23.52375,13.9775 -113.215,-4.075 z"
         id="path47"
         inkscape:connector-curvature="0"
         style="fill:#000000" />
      <path
         d="m 366.77868,532.13141 99.20375,-0.6825 48.06875,-24.88625 21.8175,-18.40875 -26.93125,16.70375 -30.68125,-0.34 14.3175,10.5675 -33.75,2.38625 -47.38625,-4.09 32.38625,9.545 -77.045,9.205 z"
         id="path49"
         inkscape:connector-curvature="0"
         style="fill:#000000" />
      <path
         d="m 368.63243,378.30267 -26.48125,10.4325 59.74125,-1.76375 62.38625,-8.5225 19.17875,-13.61999 -0.0888,-18.08375 -19.7725,23.86249 -54.88625,6.81875 -40.0775,0.87625 z"
         id="path51"
         inkscape:connector-curvature="0"
         style="fill:#b87a1f" />
      <path
         sodipodi:nodetypes="cccccc"
         inkscape:connector-curvature="0"
         id="path4752"
         d="m 285.48931,447.79661 58.31573,-1.64858 76.18369,1.31512 103.26102,-28.83418 -108.71574,40.65793 z"
         style="fill:#ffcc00;fill-opacity:1;fill-rule:evenodd;stroke:none;stroke-width:1px;stroke-linecap:butt;stroke-linejoin:miter;stroke-opacity:1" />
      <path
         sodipodi:nodetypes="cccccccccccccc"
         inkscape:connector-curvature="0"
         id="path4773"
         d="m 278.41836,438.07407 48.58358,-3.08546 67.32887,1.20768 -58.08941,-5.32288 8.44954,-3.76338 20.53041,4.82223 -12.07634,-5.09455 51.66645,5.04929 53.03207,-5.30321 45.96113,-12.37415 -25.14873,13.12397 -61.47032,12.50819 -34.47084,3.53548 z"
         style="fill:#aad400;fill-rule:evenodd;stroke:none;stroke-width:1px;stroke-linecap:butt;stroke-linejoin:miter;stroke-opacity:1" />
      <path
         sodipodi:nodetypes="ccccccccc"
         inkscape:connector-curvature="0"
         id="path4782"
         d="m 305.59508,493.20753 36.13883,15.85037 69.1076,-1.90204 50.08716,-5.07212 37.40687,-12.04628 -6.34015,-8.87621 -38.04088,15.21635 c -37.73561,3.97929 -75.6281,3.99481 -113.48862,6.34015 z"
         style="fill:#ff2600;fill-opacity:1;fill-rule:evenodd;stroke:none;stroke-width:1px;stroke-linecap:butt;stroke-linejoin:miter;stroke-opacity:1" />
      <path
         inkscape:connector-curvature="0"
         id="path4784"
         d="m 287.20865,494.47556 13.94832,7.60818 33.60278,9.51022 -34.8708,-18.38643 z"
         style="fill:#ffcc00;fill-opacity:1;fill-rule:evenodd;stroke:#000000;stroke-width:1px;stroke-linecap:butt;stroke-linejoin:miter;stroke-opacity:1" />
      <path
         sodipodi:nodetypes="cccccc"
         inkscape:connector-curvature="0"
         id="path4786"
         d="m 495.16547,480.52724 49.45315,-19.65445 -1.90205,10.77824 -12.13252,1.0289 -26.54238,12.91943 z"
         style="fill:#ffcc00;fill-opacity:1;fill-rule:evenodd;stroke:none;stroke-width:1px;stroke-linecap:butt;stroke-linejoin:miter;stroke-opacity:1" />
    </g>
  </g>
</svg>
